<?xml version="1.0" encoding="UTF-8" standalone="no"?>
<svg
   id="svg"
   version="1.1"
   width="268.99927"
   height="268.99927"
   viewBox="-254.54545 -254.54545 440.18062 440.18062"
   sodipodi:docname="logo.svg"
   inkscape:version="1.2.2 (b0a8486541, 2022-12-01)"
   xmlns:inkscape="http://www.inkscape.org/namespaces/inkscape"
   xmlns:sodipodi="http://sodipodi.sourceforge.net/DTD/sodipodi-0.dtd"
   xmlns="http://www.w3.org/2000/svg"
   xmlns:svg="http://www.w3.org/2000/svg">
  <defs
     id="defs1" />
  <sodipodi:namedview
     id="namedview1"
     pagecolor="#ffffff"
     bordercolor="#000000"
     borderopacity="0.25"
     inkscape:showpageshadow="2"
     inkscape:pageopacity="0.0"
     inkscape:pagecheckerboard="0"
     inkscape:deskcolor="#d1d1d1"
     inkscape:zoom="8.2264833"
     inkscape:cx="144.22931"
     inkscape:cy="95.788197"
     inkscape:window-width="1920"
     inkscape:window-height="1011"
     inkscape:window-x="0"
     inkscape:window-y="0"
     inkscape:window-maximized="1"
     inkscape:current-layer="svgg"
     showgrid="false" />
  <g
     id="svgg"
     transform="matrix(1.1004516,0,0,1.1004516,-254.54545,-254.54545)">
    <path
       id="path1"
       d="m 101.752,78.58 c -0.123,0.322 -0.14,19.178 -0.036,41.903 0.205,44.807 0.029,40.694 2.249,52.642 0.552,2.969 2.606,9.797 3.814,12.675 0.277,0.66 0.913,2.239 1.412,3.509 1.983,5.038 8.65,16.866 10.82,19.195 0.434,0.466 0.789,0.965 0.789,1.11 0,0.145 0.382,0.696 0.849,1.225 0.466,0.528 1.796,2.131 2.954,3.561 3.417,4.219 12.617,12.864 15.955,14.992 0.683,0.435 1.602,1.123 2.042,1.529 1.493,1.375 8.781,5.693 13.2,7.821 6.04,2.909 6.536,3.127 8.695,3.829 1.043,0.339 2.213,0.782 2.6,0.984 0.388,0.202 1.515,0.585 2.505,0.851 0.99,0.267 2.61,0.793 3.6,1.169 l 1.8,0.685 0.102,38.27 0.102,38.27 h 48.792 l 0.102,-38.252 0.102,-38.252 3.8,-1.177 c 2.09,-0.647 4.34,-1.407 5,-1.688 0.66,-0.281 1.83,-0.739 2.6,-1.018 3.645,-1.32 10.945,-4.914 14.166,-6.974 1.237,-0.791 2.337,-1.439 2.445,-1.439 0.353,0 7.532,-5.302 10.189,-7.524 7.969,-6.667 16.786,-16.95 21.328,-24.876 1.679,-2.929 6.272,-12.23 6.272,-12.701 0,-0.239 0.253,-0.944 0.563,-1.567 1.501,-3.019 3.988,-11.239 5.002,-16.532 1.874,-9.789 1.817,-8.155 1.826,-51.6 l 0.009,-41 C 281.2,78.131333 265,78.062667 248.8,77.994 v 35.834 c 0,35.769 -0.219,43.152 -1.42,47.972 -1.461,5.859 -1.435,5.784 -3.823,10.8 -10.364,21.773 -35.281,32.691 -58.757,25.748 -3.232,-0.956 -10.962,-4.853 -12.32,-6.211 -0.295,-0.295 -0.67,-0.537 -0.833,-0.537 -0.163,0 -0.651,-0.315 -1.085,-0.7 -0.434,-0.385 -1.728,-1.475 -2.875,-2.423 -3.453,-2.853 -9.687,-9.995 -9.687,-11.097 0,-0.129 -0.45,-0.823 -1,-1.544 -0.55,-0.722 -1,-1.472 -1,-1.667 0,-0.196 -0.482,-1.349 -1.071,-2.563 -1.738,-3.58 -2.511,-5.857 -3.262,-9.606 -0.242,-1.21 -0.562,-2.74 -0.71,-3.4 -0.149,-0.66 -0.38,-19.02 -0.514,-40.8 L 150.2,78.2 126.089,78.097 c -20.873,-0.089 -24.142,-0.025 -24.337,0.483"
       stroke="none"
       fill="#ebebeb"
       fill-rule="evenodd"
       sodipodi:nodetypes="cccsccsccccccccccccccccsccsccscccccscccssscscsccccccc" />
    <path
       id="path2"
       d="M 99.206,80.016 C 63.451924,120.81099 31.751659,160.16447 0.5,195.438 0.103,195.839 0,216.885 0,297.971 V 400 h 80 c 52.658,0 80,-0.136 80,-0.397 17.9137,-22.48491 38.5951,-44.62504 54.871,-64.603 2.63454,-3.7258 7.40036,-7.49564 8.766,-11.123 -0.356,-0.356 -6.6,-0.505 -24.657,-0.586 l -24.18,-0.109 v -38.391 c 0,-36.297 -0.038,-38.391 -0.7,-38.389 -0.748,0.002 -4.243,-1.067 -5.395,-1.65 -0.382,-0.194 -0.96,-0.352 -1.286,-0.352 -0.326,0 -1.273,-0.295 -2.105,-0.655 -0.833,-0.361 -1.874,-0.786 -2.314,-0.946 -2.954,-1.071 -10.196,-4.633 -13.684,-6.729 -10.252,-6.162 -19.339,-14.009 -26.732,-23.086 -2.454,-3.013 -5.784,-7.721 -5.784,-8.178 0,-0.223 -0.168,-0.406 -0.373,-0.406 -0.205,0 -0.499,-0.405 -0.654,-0.9 -0.154,-0.495 -0.392,-0.99 -0.527,-1.1 -0.284,-0.231 -1.201,-1.853 -2.753,-4.874 -0.601,-1.169 -1.228,-2.186 -1.393,-2.259 -0.165,-0.074 -0.3,-0.341 -0.3,-0.595 0,-0.253 -0.432,-1.363 -0.96,-2.466 -0.528,-1.103 -1.257,-2.726 -1.62,-3.606 -0.362,-0.88 -0.83,-1.913 -1.039,-2.295 -0.21,-0.382 -0.381,-1.057 -0.381,-1.5 0,-0.443 -0.15,-0.805 -0.333,-0.805 -0.298,0 -0.941,-2.034 -1.519,-4.8 -0.114,-0.55 -0.376,-1.36 -0.581,-1.8 -0.608,-1.307 -1.454,-5.612 -2.633,-13.4 -0.535,-3.535 -0.675,-10.658 -0.885,-44.984 L 100.6,78.232 99.206,80.016"
       stroke="none"
       fill="#3c546c"
       fill-rule="evenodd"
       sodipodi:nodetypes="ccscscccccsccscccsssccccssccsscccccc" />
  </g>
</svg>
